<mxfile host="app.diagrams.net" modified="2023-06-08T13:35:51.210Z" agent="Mozilla/5.0 (Windows NT 10.0; Win64; x64; rv:109.0) Gecko/20100101 Firefox/113.0" etag="j77OBvR45_NbcHz3TXqS" version="21.3.7" type="device">
  <diagram name="Page-1" id="c9db0220-8083-56f3-ca83-edcdcd058819">
    <mxGraphModel dx="1434" dy="782" grid="1" gridSize="10" guides="1" tooltips="1" connect="1" arrows="1" fold="1" page="1" pageScale="1.5" pageWidth="826" pageHeight="1169" background="none" math="0" shadow="0">
      <root>
        <mxCell id="0" style=";html=1;" />
        <mxCell id="1" style=";html=1;" parent="0" />
        <mxCell id="8euLcORZt_nUvRzcAU-U-29" value="" style="rounded=0;whiteSpace=wrap;html=1;" vertex="1" parent="1">
          <mxGeometry x="16" y="18" width="1200" height="800" as="geometry" />
        </mxCell>
        <mxCell id="8euLcORZt_nUvRzcAU-U-30" value="" style="endArrow=none;html=1;rounded=0;entryX=0.999;entryY=0.062;entryDx=0;entryDy=0;entryPerimeter=0;exitX=-0.001;exitY=0.059;exitDx=0;exitDy=0;exitPerimeter=0;" edge="1" parent="1" source="8euLcORZt_nUvRzcAU-U-29" target="8euLcORZt_nUvRzcAU-U-29">
          <mxGeometry width="50" height="50" relative="1" as="geometry">
            <mxPoint x="636" y="378" as="sourcePoint" />
            <mxPoint x="686" y="328" as="targetPoint" />
          </mxGeometry>
        </mxCell>
        <mxCell id="8euLcORZt_nUvRzcAU-U-38" value="&lt;font size=&quot;1&quot; face=&quot;Courier New&quot; color=&quot;#525252&quot;&gt;&lt;b style=&quot;font-size: 68px;&quot;&gt;+&lt;/b&gt;&lt;/font&gt;" style="text;strokeColor=none;align=center;fillColor=none;html=1;verticalAlign=middle;whiteSpace=wrap;rounded=0;" vertex="1" parent="1">
          <mxGeometry x="1135" y="355" width="60" height="30" as="geometry" />
        </mxCell>
        <mxCell id="8euLcORZt_nUvRzcAU-U-39" value="" style="endArrow=none;html=1;rounded=0;entryX=0.999;entryY=0.062;entryDx=0;entryDy=0;entryPerimeter=0;exitX=-0.001;exitY=0.059;exitDx=0;exitDy=0;exitPerimeter=0;strokeColor=#525252;strokeWidth=2;" edge="1" parent="1">
          <mxGeometry width="50" height="50" relative="1" as="geometry">
            <mxPoint x="16" y="143" as="sourcePoint" />
            <mxPoint x="1216" y="146" as="targetPoint" />
          </mxGeometry>
        </mxCell>
        <mxCell id="8euLcORZt_nUvRzcAU-U-40" value="&lt;div align=&quot;left&quot;&gt;&lt;font face=&quot;Georgia&quot; color=&quot;#c7c7c7&quot;&gt;&lt;b&gt;&lt;font style=&quot;font-size: 32px;&quot;&gt;Götterblick-Spielgruppe&lt;/font&gt;&lt;/b&gt;&lt;/font&gt;&lt;font color=&quot;#c7c7c7&quot;&gt;&lt;br&gt;&lt;/font&gt;&lt;/div&gt;" style="text;strokeColor=none;align=left;fillColor=none;html=1;verticalAlign=middle;whiteSpace=wrap;rounded=0;" vertex="1" parent="1">
          <mxGeometry x="25" y="103" width="727" height="30" as="geometry" />
        </mxCell>
        <mxCell id="8euLcORZt_nUvRzcAU-U-47" value="" style="rounded=1;whiteSpace=wrap;html=1;" vertex="1" parent="1">
          <mxGeometry x="27" y="221" width="1173" height="60" as="geometry" />
        </mxCell>
        <mxCell id="8euLcORZt_nUvRzcAU-U-42" value="&lt;font size=&quot;1&quot; face=&quot;Courier New&quot; color=&quot;#60f073&quot;&gt;&lt;b style=&quot;font-size: 68px;&quot;&gt;+&lt;/b&gt;&lt;/font&gt;" style="text;strokeColor=none;align=center;fillColor=none;html=1;verticalAlign=middle;whiteSpace=wrap;rounded=0;" vertex="1" parent="1">
          <mxGeometry x="586" y="236" width="60" height="30" as="geometry" />
        </mxCell>
        <mxCell id="8euLcORZt_nUvRzcAU-U-46" value="" style="rounded=1;whiteSpace=wrap;html=1;" vertex="1" parent="1">
          <mxGeometry x="27" y="155" width="1173" height="60" as="geometry" />
        </mxCell>
        <mxCell id="8euLcORZt_nUvRzcAU-U-48" value="" style="rounded=1;whiteSpace=wrap;html=1;" vertex="1" parent="1">
          <mxGeometry x="1140.5" y="162.5" width="49.5" height="45" as="geometry" />
        </mxCell>
        <mxCell id="8euLcORZt_nUvRzcAU-U-50" value="" style="rounded=1;whiteSpace=wrap;html=1;" vertex="1" parent="1">
          <mxGeometry x="1083.5" y="162.5" width="49.5" height="45" as="geometry" />
        </mxCell>
        <mxCell id="8euLcORZt_nUvRzcAU-U-51" value="&lt;font size=&quot;1&quot; face=&quot;Courier New&quot; color=&quot;#ff3333&quot;&gt;&lt;b style=&quot;font-size: 68px;&quot;&gt;+&lt;/b&gt;&lt;/font&gt;" style="text;strokeColor=none;align=center;fillColor=none;html=1;verticalAlign=middle;whiteSpace=wrap;rounded=0;rotation=45;" vertex="1" parent="1">
          <mxGeometry x="1135" y="171" width="60" height="30" as="geometry" />
        </mxCell>
        <mxCell id="8euLcORZt_nUvRzcAU-U-52" value="" style="rounded=1;whiteSpace=wrap;html=1;strokeWidth=2;" vertex="1" parent="1">
          <mxGeometry x="1094.75" y="168" width="21" height="30" as="geometry" />
        </mxCell>
        <mxCell id="8euLcORZt_nUvRzcAU-U-55" value="" style="rounded=1;whiteSpace=wrap;html=1;strokeWidth=2;" vertex="1" parent="1">
          <mxGeometry x="1100.75" y="174" width="21" height="30" as="geometry" />
        </mxCell>
        <mxCell id="8euLcORZt_nUvRzcAU-U-58" value="" style="rounded=1;whiteSpace=wrap;html=1;" vertex="1" parent="1">
          <mxGeometry x="1026.5" y="162.5" width="49.5" height="45" as="geometry" />
        </mxCell>
        <mxCell id="8euLcORZt_nUvRzcAU-U-60" value="" style="shape=image;html=1;verticalAlign=top;verticalLabelPosition=bottom;labelBackgroundColor=#ffffff;imageAspect=0;aspect=fixed;image=https://cdn1.iconfinder.com/data/icons/unicons-line-vol-3/24/export-128.png" vertex="1" parent="1">
          <mxGeometry x="1032.75" y="167" width="37" height="37" as="geometry" />
        </mxCell>
        <mxCell id="8euLcORZt_nUvRzcAU-U-62" value="&lt;div align=&quot;left&quot;&gt;&lt;font face=&quot;Georgia&quot; color=&quot;#c7c7c7&quot;&gt;&lt;b&gt;&lt;font style=&quot;font-size: 32px;&quot;&gt;Arya&lt;/font&gt;&lt;/b&gt;&lt;/font&gt;&lt;font color=&quot;#c7c7c7&quot;&gt;&lt;br&gt;&lt;/font&gt;&lt;/div&gt;" style="text;strokeColor=none;align=left;fillColor=none;html=1;verticalAlign=middle;whiteSpace=wrap;rounded=0;" vertex="1" parent="1">
          <mxGeometry x="39" y="168" width="91" height="30" as="geometry" />
        </mxCell>
        <mxCell id="8euLcORZt_nUvRzcAU-U-63" value="&lt;div align=&quot;left&quot;&gt;&lt;font style=&quot;font-size: 28px;&quot; face=&quot;Georgia&quot; color=&quot;#bdbdbd&quot;&gt;Mensch (Mittelländer) | W26 | Gaukler | 2300/3500 AP&lt;br&gt;&lt;/font&gt;&lt;/div&gt;" style="text;strokeColor=none;align=left;fillColor=none;html=1;verticalAlign=middle;whiteSpace=wrap;rounded=0;" vertex="1" parent="1">
          <mxGeometry x="160" y="169" width="850" height="30" as="geometry" />
        </mxCell>
        <mxCell id="8euLcORZt_nUvRzcAU-U-64" value="" style="ellipse;whiteSpace=wrap;html=1;aspect=fixed;fillColor=#F0F0F0;strokeColor=#F0F0F0;" vertex="1" parent="1">
          <mxGeometry x="134" y="180" width="10" height="10" as="geometry" />
        </mxCell>
        <mxCell id="8euLcORZt_nUvRzcAU-U-67" value="" style="endArrow=none;html=1;rounded=0;entryX=0.999;entryY=0.062;entryDx=0;entryDy=0;entryPerimeter=0;exitX=-0.001;exitY=0.059;exitDx=0;exitDy=0;exitPerimeter=0;strokeColor=#525252;strokeWidth=2;" edge="1" parent="1">
          <mxGeometry width="50" height="50" relative="1" as="geometry">
            <mxPoint x="19" y="396" as="sourcePoint" />
            <mxPoint x="1219" y="399" as="targetPoint" />
          </mxGeometry>
        </mxCell>
        <mxCell id="8euLcORZt_nUvRzcAU-U-68" value="&lt;div align=&quot;left&quot;&gt;&lt;font face=&quot;Georgia&quot; color=&quot;#c7c7c7&quot;&gt;&lt;b&gt;&lt;font style=&quot;font-size: 32px;&quot;&gt;Höllenblindheit-Spielgruppe&lt;br&gt;&lt;/font&gt;&lt;/b&gt;&lt;/font&gt;&lt;/div&gt;" style="text;strokeColor=none;align=left;fillColor=none;html=1;verticalAlign=middle;whiteSpace=wrap;rounded=0;" vertex="1" parent="1">
          <mxGeometry x="27" y="355" width="643" height="30" as="geometry" />
        </mxCell>
        <mxCell id="8euLcORZt_nUvRzcAU-U-74" value="" style="rounded=1;whiteSpace=wrap;html=1;" vertex="1" parent="1">
          <mxGeometry x="27" y="410" width="1173" height="60" as="geometry" />
        </mxCell>
        <mxCell id="8euLcORZt_nUvRzcAU-U-72" value="&lt;font size=&quot;1&quot; face=&quot;Courier New&quot; color=&quot;#525252&quot;&gt;&lt;b style=&quot;font-size: 68px;&quot;&gt;+&lt;/b&gt;&lt;/font&gt;" style="text;strokeColor=none;align=center;fillColor=none;html=1;verticalAlign=middle;whiteSpace=wrap;rounded=0;" vertex="1" parent="1">
          <mxGeometry x="1135" y="103" width="60" height="30" as="geometry" />
        </mxCell>
        <mxCell id="8euLcORZt_nUvRzcAU-U-75" value="&lt;font size=&quot;1&quot; face=&quot;Courier New&quot; color=&quot;#60f073&quot;&gt;&lt;b style=&quot;font-size: 68px;&quot;&gt;+&lt;/b&gt;&lt;/font&gt;" style="text;strokeColor=none;align=center;fillColor=none;html=1;verticalAlign=middle;whiteSpace=wrap;rounded=0;" vertex="1" parent="1">
          <mxGeometry x="586" y="425" width="60" height="30" as="geometry" />
        </mxCell>
        <mxCell id="8euLcORZt_nUvRzcAU-U-80" value="&lt;div align=&quot;left&quot;&gt;&lt;font style=&quot;font-size: 20px;&quot;&gt;Charaktersicht - DSA 4.1&lt;/font&gt;&lt;br&gt;&lt;/div&gt;" style="text;strokeColor=none;align=left;fillColor=none;html=1;verticalAlign=middle;whiteSpace=wrap;rounded=0;" vertex="1" parent="1">
          <mxGeometry x="25" y="26" width="505" height="30" as="geometry" />
        </mxCell>
      </root>
    </mxGraphModel>
  </diagram>
</mxfile>
